<mxfile host="app.diagrams.net" modified="2023-12-23T15:49:49.613Z" agent="Mozilla/5.0 (Windows NT 10.0; Win64; x64) AppleWebKit/537.36 (KHTML, like Gecko) Chrome/118.0.0.0 Safari/537.36 Edg/118.0.2088.76" version="22.1.11" etag="Sol2jOGJ0PhSTzBKZgno" type="github">
  <diagram name="第 1 页" id="8xPRyCYHTkm_DeoskmZx">
    <mxGraphModel>
      <root>
        <mxCell id="0" />
        <mxCell id="1" parent="0" />
      </root>
    </mxGraphModel>
  </diagram>
</mxfile>
